<svg xmlns="http://www.w3.org/2000/svg" viewBox="0 0 1080 1080"><defs><style>.cls-1{fill:#2196f3;}.cls-2{fill:#f2f2f2;}</style></defs><g id="Livello_5" data-name="Livello 5"><circle class="cls-1" cx="540" cy="540" r="540"/><path class="cls-2" d="M716,258.94Q791.19,298.5,833.2,367.79t42,156.8q0,61.6-17.85,106T807.3,698.19q-32.2,23.1-75.6,23.1-35.7,0-60.2-15.4t-35.7-45.5q-37.8,60.9-119.7,60.9-44.81,0-81.9-22.4t-58.45-62.65q-21.36-40.25-21.35-92,0-51.09,21.35-91.35t58.1-62.65q36.75-22.4,82.25-22.4,69.3,0,107.8,46.2v-41.3h95.2v226.8q0,44.81,33.6,44.8,24.49,0,38.15-29.4T804.5,526Q804.5,455.3,772,401t-91.7-84.7q-59.16-30.45-136.15-30.45T408,318.44q-59.16,32.55-91.7,89.95T283.7,538.59q0,74.2,32.2,131.95t90.65,90.3Q465,793.39,541.3,793.39q75.6,0,137.9-30.8L701.6,827q-31.5,16.1-74.55,24.85a429.86,429.86,0,0,1-85.75,8.75q-99.4,0-175.7-41.65T247.3,703.79q-42-73.5-42-165.2,0-91,42.35-163.8T367,260.69q77-41.3,177.1-41.3Q640.7,219.39,716,258.94ZM600.8,615.24q24.5-25.54,24.5-71,0-44.79-24.5-70t-63-25.2q-39.21,0-63,25.55T451,544.19q0,44.8,23.8,70.7t63,25.9Q576.29,640.79,600.8,615.24Z"/></g></svg>