<svg id="Livello_1" data-name="Livello 1" xmlns="http://www.w3.org/2000/svg" viewBox="0 0 1080 1080"><defs><style>.cls-1{fill:#4caf50;}.cls-2{fill:#f2f2f2;}</style></defs><circle class="cls-1" cx="540" cy="540" r="540"/><path class="cls-2" d="M405.15,761.24q-60.56-32.55-95.2-90.3T275.3,540.39q0-72.79,34.65-130.55t95.2-90.3Q465.69,287,541.3,287q63.69,0,115.15,22.4t86.45,64.4L670.1,441q-49.71-57.39-123.2-57.4-45.51,0-81.2,20a141.82,141.82,0,0,0-55.65,55.65q-19.95,35.7-19.95,81.2t19.95,81.2a141.82,141.82,0,0,0,55.65,55.65q35.7,19.95,81.2,20,73.5,0,123.2-58.1l72.8,67.2q-35,42.71-86.8,65.1t-115.5,22.4Q465.69,793.79,405.15,761.24Z"/></svg>